<svg width="108" height="108" viewBox="0 0 108 108" fill="none" xmlns="http://www.w3.org/2000/svg">
<g clip-path="url(#clip0_247_335)">
<path d="M72.8277 2.84934L105.75 35.7717V105.434H35.7187L3.16507 72.8688V2.84934H72.8277ZM73.7198 0.613281H0.929016V73.7609L34.8267 107.659H107.974V34.8678L73.7198 0.613281Z" fill="black"/>
<path d="M18.3178 60.9165V64.8415H16.0818V54.137H20.1852C21.1605 54.0537 22.0525 54.4105 22.8613 55.029C24.1934 56.4563 24.1934 58.5972 22.8613 60.0245C22.1477 60.6548 21.1605 60.9998 20.1852 60.9165H18.3178ZM18.3178 59.2157H19.9235C20.3755 59.2157 20.8156 59.1324 21.0772 58.7637C21.6124 58.0501 21.6124 56.9796 21.0772 56.266C20.7204 55.9924 20.3636 55.814 19.9235 55.814H18.3178V59.2038V59.2157ZM33.209 64.8415L32.4954 62.4389H28.8439L28.1303 64.8415H25.7277L29.4743 54.137H32.0672L35.7186 64.8415H33.2209H33.209ZM29.284 60.7381H31.9602L30.628 56.2779L29.2959 60.7381H29.284ZM38.9181 64.8415V54.137H43.0215C44.0087 54.0537 44.9007 54.4105 45.6976 55.029C46.328 55.6475 46.6848 56.5395 46.6848 57.4316C46.6848 58.062 46.5064 58.5972 46.1496 59.1324C45.7928 59.6676 45.2576 60.0245 44.7223 60.298L47.3985 64.9366H44.9959L42.6766 60.75H41.1542V64.8534H38.9181V64.8415ZM41.1542 59.0373H42.7598C43.5686 59.1205 44.2704 58.5853 44.3655 57.7884V57.3364C44.4607 56.5276 43.9135 55.8259 43.2118 55.7308H41.2493V59.0254H41.166L41.1542 59.0373ZM52.834 64.8415V56.0043H49.5394V54.137H58.3765V56.0043H55.07V64.8415H52.834ZM63.9786 57.4316V64.8415H61.9328V54.137H64.4306L68.8075 61.6301V54.137H70.8652V64.8415H68.3674L63.9905 57.4316H63.9786ZM74.9567 64.8415V54.137H82.0098V55.9211H77.276V58.4188H81.1177V60.2029H77.276V63.0574H82.0098V64.8415H74.9567ZM86.1132 64.8415V54.137H90.2166C91.1919 54.0537 92.0839 54.4105 92.8927 55.029C93.5231 55.6475 93.868 56.5395 93.868 57.4316C93.868 58.062 93.6896 58.5972 93.3328 59.1324C92.976 59.6676 92.4407 60.0245 91.9055 60.298L94.5816 64.9366H92.1791L89.8597 60.75H88.3492V64.8534H86.1132V64.8415ZM88.3492 59.0373H89.9549C90.7518 59.1205 91.4654 58.5853 91.5606 57.7884V57.3364C91.6438 56.5276 91.1086 55.8259 90.4069 55.7308H88.3492V59.0254V59.0373Z" fill="black"/>
<path d="M24.7408 25.1394C24.7408 25.4962 24.7408 25.853 24.9192 26.2099C25.0025 26.4834 25.1809 26.8402 25.2761 27.1019C25.3593 27.1971 25.3593 27.2803 25.3593 27.3755C25.3593 27.5539 25.2761 27.649 25.0858 27.7323L24.277 28.2675H24.0153C23.8369 28.2675 23.7417 28.1843 23.6585 28.0891C23.4801 27.9107 23.3017 27.7323 23.2065 27.5539C23.1233 27.3755 22.933 27.1019 22.8497 26.8402C21.9577 27.9107 20.7088 28.5411 19.2815 28.5411C18.3895 28.6243 17.4974 28.2675 16.879 27.649C16.2486 27.0186 15.9869 26.2218 15.9869 25.3297C15.9869 24.3544 16.3437 23.4624 17.0574 22.832C17.8661 22.2016 18.9247 21.8567 20.0071 21.8567C20.459 21.8567 20.8991 21.8567 21.2559 21.9399L22.588 22.2016V21.3096C22.6713 20.5959 22.4929 19.8823 22.0528 19.3471C21.5176 18.8951 20.8039 18.7286 20.0903 18.8118C19.6383 18.8118 19.1983 18.8951 18.7582 18.9903C18.3181 19.0854 17.8661 19.2638 17.4261 19.4422C17.2477 19.5255 17.1525 19.5255 16.9741 19.6206H16.7957C16.6173 19.6206 16.5221 19.5255 16.5221 19.2638V18.6334C16.5221 18.455 16.5221 18.3718 16.6054 18.1815C16.6886 18.0982 16.7838 18.0031 16.9622 17.9198C17.4142 17.6462 17.9375 17.4678 18.4727 17.3846C19.1031 17.2062 19.7216 17.111 20.352 17.111C21.5057 17.0278 22.588 17.3846 23.4682 18.0863C24.1818 18.8951 24.5386 19.9537 24.4435 21.036L24.7051 25.1394H24.7408ZM19.8405 26.9235C20.2925 26.9235 20.6493 26.8402 21.0894 26.7451C21.5414 26.5667 21.8982 26.2931 22.255 25.9363C22.4334 25.7579 22.6118 25.4843 22.707 25.1275C22.8021 24.7707 22.7902 24.4139 22.7902 24.0571V23.5218C22.4334 23.4386 22.0766 23.3434 21.7198 23.3434C21.363 23.2602 21.0061 23.2602 20.5542 23.2602C19.9357 23.1769 19.3053 23.3434 18.7701 23.7121C18.0564 24.4258 17.9613 25.5795 18.5917 26.3883C18.9485 26.8402 19.3886 27.0068 19.8405 26.9235ZM29.5698 28.2556C29.3914 28.2556 29.2129 28.2556 29.1178 28.1724C29.0345 28.0891 28.9394 27.8988 28.8561 27.7204L26.0016 18.348C25.9183 18.1696 25.9183 17.9912 25.9183 17.896C25.9183 17.7176 26.0016 17.6225 26.0967 17.6225H27.3456C27.524 17.6225 27.7024 17.6225 27.7976 17.7057C27.8808 17.8009 27.976 17.9793 28.0711 18.1577L30.1169 26.1028L31.9961 18.1577C31.9961 17.9793 32.0794 17.8009 32.2578 17.7057C32.4362 17.6225 32.6146 17.6225 32.7098 17.6225H33.6851C33.8635 17.6225 34.0419 17.6225 34.137 17.7057C34.2322 17.8009 34.3154 17.9793 34.4106 18.1577L36.2779 26.2812L38.3356 18.1577C38.3356 17.9793 38.4188 17.8009 38.5972 17.7057C38.7757 17.6225 38.8708 17.6225 39.0492 17.6225H40.2148C40.3932 17.6225 40.4884 17.7057 40.4884 17.8009V18.0625C40.4884 18.1458 40.3932 18.2409 40.3932 18.3361L37.5387 27.6133C37.5387 27.7918 37.4554 27.9702 37.2651 28.0653C37.1819 28.2437 37.0035 28.2437 36.8132 28.2437H35.7427C35.5643 28.2437 35.3859 28.2437 35.2907 28.1605C35.2075 27.9821 35.1123 27.8869 35.0172 27.7085L33.1498 19.9418L31.2825 27.7085C31.2825 27.8869 31.1992 28.0653 31.0089 28.1605C30.9257 28.2437 30.7473 28.2437 30.6521 28.2437H29.5817L29.5698 28.2556ZM45.0913 28.6124C44.4728 28.6124 43.8425 28.5292 43.224 28.434C42.772 28.3508 42.2487 28.1724 41.7967 27.9821C41.5231 27.8988 41.3447 27.6252 41.3447 27.2684V26.638C41.3447 26.3764 41.428 26.2812 41.6064 26.2812H41.7848C41.8681 26.2812 41.9632 26.3645 42.0465 26.3645C42.4984 26.5429 42.9385 26.7213 43.3786 26.8165C43.8306 26.8997 44.3539 26.9949 44.8059 26.9949C45.4362 26.9949 46.0547 26.9116 46.59 26.5429C46.9468 26.2812 47.2203 25.8293 47.2203 25.3892C47.2203 25.0324 47.1371 24.7588 46.8635 24.5804C46.5067 24.3068 46.0547 24.0452 45.6147 23.95L43.8306 23.4148C43.1169 23.2364 42.4033 22.7963 41.8681 22.1659C41.5113 21.6307 41.2377 21.0122 41.2377 20.3818C41.2377 19.9299 41.3328 19.4898 41.5945 19.0497C41.7729 18.6929 42.1297 18.3361 42.4866 18.0744C42.8434 17.8128 43.2953 17.5392 43.7354 17.4559C44.2706 17.2775 44.7107 17.2775 45.2459 17.2775C45.5195 17.2775 45.7812 17.2775 46.0547 17.3727C46.3283 17.3727 46.59 17.4559 46.8635 17.5511C47.1371 17.6462 47.3155 17.6343 47.5772 17.7295C47.7556 17.8247 47.934 17.8247 48.1124 17.9079C48.2908 17.9912 48.374 18.0863 48.4692 18.1696C48.5525 18.2647 48.5525 18.4431 48.5525 18.6215V19.1568C48.5525 19.4184 48.4692 19.5136 48.2789 19.5136C48.0886 19.5136 47.9221 19.4303 47.8269 19.3352C47.1133 18.9784 46.3164 18.8832 45.5076 18.8832C44.9724 18.8832 44.4372 18.9665 43.9019 19.24C43.5451 19.4184 43.2834 19.8585 43.3667 20.3105C43.3667 20.6673 43.45 20.9409 43.7235 21.2025C44.0803 21.5593 44.5323 21.7378 45.0556 21.8329L46.7565 22.3681C47.4701 22.5465 48.0886 22.9866 48.6238 23.5218C48.9806 23.9738 49.159 24.5923 49.159 25.2227C49.159 25.6746 49.0758 26.198 48.8022 26.6499C48.6238 27.1019 48.267 27.4587 47.9102 27.7204C47.5534 27.9821 47.0181 28.2556 46.5781 28.434C46.2212 28.5292 45.6028 28.6124 45.0675 28.6124H45.0913Z" fill="black"/>
<path d="M47.3149 34.4277C43.2948 37.3655 37.5857 38.888 32.5903 38.888C25.9891 38.888 19.5664 36.4735 14.6661 32.0133C14.3093 31.6565 14.6661 31.2164 15.1181 31.478C20.5536 34.6894 26.7979 36.2951 33.0422 36.2951C37.776 36.2951 42.4146 35.3198 46.7797 33.5357C47.3982 33.2621 48.0286 33.9877 47.3149 34.4277ZM47.9334 37.1039C47.755 37.4607 48.1118 37.6391 48.4686 37.3655C50.6096 35.5814 51.1448 31.8349 50.7047 31.2996C50.2527 30.7644 46.5061 30.3243 44.282 31.9181C43.9252 32.1917 44.0203 32.5485 44.3652 32.4534C45.6141 32.2749 48.4686 31.9181 49.0039 32.6318C49.5391 33.3454 48.3735 35.9264 47.9334 37.092V37.1039Z" fill="#FF9900"/>
<path d="M41.0593 74.6526L40.5479 73.1064H38.181L37.6814 74.6526H36.5515L38.7995 68.4678H39.9889L42.2368 74.6526H41.0831H41.0593ZM38.4308 72.3095H40.2981L39.3585 69.455L38.4308 72.3095Z" fill="black"/>
<path d="M46.0902 74.6534L45.9832 74.2252C45.5788 74.582 45.103 74.7604 44.5797 74.7604C44.0088 74.7604 43.5568 74.5463 43.2119 74.13C42.867 73.7019 42.7005 73.1309 42.7005 72.4054C42.7005 71.9297 42.7718 71.5134 42.9383 71.1447C43.093 70.7878 43.3189 70.5024 43.6044 70.3002C43.8898 70.098 44.2348 69.991 44.6392 69.991C45.1149 69.991 45.555 70.1456 45.9475 70.4548V68.0522H46.9942V74.6534H46.1021H46.0902ZM44.9008 73.9278C45.2576 73.9278 45.6026 73.8089 45.9356 73.5829V71.1328C45.6264 70.9187 45.2933 70.8116 44.9127 70.8116C44.5321 70.8116 44.2348 70.9425 44.0326 71.2041C43.8423 71.4539 43.759 71.8464 43.759 72.3578C43.759 73.4045 44.1396 73.9397 44.9008 73.9397V73.9278Z" fill="black"/>
<path d="M49.4556 74.6533L47.6834 70.1099H48.8133L49.9671 73.7018L51.1446 70.1099H52.215L50.4785 74.6533H49.4556Z" fill="black"/>
<path d="M55.5695 74.653L55.4863 74.2248C55.2722 74.4032 55.0343 74.534 54.7846 74.6411C54.5348 74.7481 54.285 74.7957 54.0352 74.7957C53.6189 74.7957 53.274 74.6649 53.0243 74.4151C52.7745 74.1653 52.6436 73.8442 52.6436 73.4398C52.6436 72.9997 52.7983 72.6548 53.1194 72.3931C53.4286 72.1196 53.8568 71.9887 54.4039 71.9887C54.7132 71.9887 55.0581 72.0363 55.4387 72.1315V71.6081C55.4387 71.2989 55.3792 71.0967 55.2484 70.9777C55.1176 70.8588 54.8916 70.7993 54.5705 70.7993C54.1066 70.7993 53.5714 70.8945 52.9648 71.0967V70.3593C53.1908 70.2522 53.4524 70.1571 53.7736 70.0976C54.0828 70.0381 54.4039 70.0024 54.737 70.0024C55.3079 70.0024 55.7361 70.1214 56.0215 70.3593C56.2951 70.5971 56.4378 70.954 56.4378 71.4654V74.6649H55.5933L55.5695 74.653ZM54.3326 74.0345C54.511 74.0345 54.6894 73.9988 54.8797 73.9274C55.07 73.8561 55.2603 73.749 55.4387 73.6063V72.7499C55.1295 72.6905 54.844 72.6548 54.6061 72.6548C53.9877 72.6548 53.6665 72.8927 53.6665 73.3684C53.6665 73.5825 53.726 73.749 53.8449 73.868C53.9639 73.975 54.1304 74.0345 54.3326 74.0345Z" fill="black"/>
<path d="M60.6836 74.6531V71.644C60.6836 71.3585 60.6241 71.1444 60.5052 71.0136C60.3863 70.8709 60.1841 70.8114 59.9343 70.8114C59.5418 70.8114 59.1493 70.9422 58.733 71.2039V74.665H57.6744V70.1216H58.5546L58.6497 70.6211C59.2088 70.2048 59.8034 69.9907 60.41 69.9907C60.8501 69.9907 61.1713 70.1097 61.3972 70.3356C61.6232 70.5616 61.7303 70.8828 61.7303 71.3228V74.6531H60.6836Z" fill="black"/>
<path d="M66.1793 74.4744C65.8225 74.6647 65.4062 74.7479 64.9304 74.7479C64.2287 74.7479 63.6935 74.5457 63.3129 74.1532C62.9442 73.7489 62.7539 73.1779 62.7539 72.4286C62.7539 71.6793 62.9442 71.0727 63.3367 70.6564C63.7292 70.2283 64.2644 70.0142 64.9661 70.0142C65.3824 70.0142 65.7868 70.1093 66.1555 70.2758V71.0251C65.7511 70.9062 65.4181 70.8467 65.1326 70.8467C64.6807 70.8467 64.3595 70.9657 64.1455 71.2036C63.9314 71.4414 63.8243 71.822 63.8243 72.3335V72.4405C63.8243 72.9401 63.9314 73.3207 64.1455 73.5586C64.3595 73.7964 64.6926 73.9035 65.1326 73.9035C65.4419 73.9035 65.7987 73.844 66.1793 73.7251V74.4625V74.4744Z" fill="black"/>
<path d="M67.8676 72.6313C67.8914 73.0833 68.0104 73.4163 68.2482 73.6304C68.4861 73.8326 68.8548 73.9397 69.3306 73.9397C69.7826 73.9397 70.2583 73.8683 70.7698 73.7018V74.4392C70.5676 74.5463 70.3178 74.6295 70.0442 74.689C69.7707 74.7604 69.4733 74.7841 69.176 74.7841C68.4385 74.7841 67.8676 74.582 67.4751 74.1895C67.0826 73.7851 66.8923 73.1904 66.8923 72.4054C66.8923 71.6204 67.0826 71.0495 67.4632 70.6213C67.8438 70.1931 68.3672 69.979 69.057 69.979C69.6398 69.979 70.0799 70.1336 70.3891 70.4548C70.6984 70.764 70.8649 71.216 70.8649 71.8107C70.8649 72.1199 70.8411 72.3935 70.7816 72.6313H67.8676ZM68.9976 70.7521C68.6764 70.7521 68.4148 70.8592 68.2126 71.0732C68.0104 71.2873 67.8914 71.5728 67.8676 71.9415H69.9253V71.8701C69.9253 71.5133 69.842 71.2279 69.6874 71.0495C69.5209 70.8592 69.2949 70.7521 68.9976 70.7521Z" fill="black"/>
<path d="M75.0526 74.6534L74.9455 74.2252C74.5411 74.582 74.0654 74.7604 73.542 74.7604C72.9711 74.7604 72.5192 74.5463 72.1743 74.13C71.8293 73.7019 71.6628 73.1309 71.6628 72.4054C71.6628 71.9297 71.7342 71.5134 71.9007 71.1447C72.0553 70.7878 72.2813 70.5024 72.5667 70.3002C72.8522 70.098 73.1971 69.991 73.6015 69.991C74.0773 69.991 74.5174 70.1456 74.9099 70.4548V68.0522H75.9565V74.6534H75.0645H75.0526ZM73.8632 73.9278C74.22 73.9278 74.5649 73.8089 74.898 73.5829V71.1328C74.5887 70.9187 74.2557 70.8116 73.8751 70.8116C73.4945 70.8116 73.1971 70.9425 72.9949 71.2041C72.8046 71.4539 72.7214 71.8464 72.7214 72.3578C72.7214 73.4045 73.102 73.9397 73.8632 73.9397V73.9278Z" fill="black"/>
<path d="M80.987 74.6526V69.3598H79.0483V68.4678H84.008V69.3598H82.0693V74.6526H80.987Z" fill="black"/>
<path d="M84.8167 74.6526V70.1092H85.8633V74.6526H84.8167ZM85.3281 69.3598C85.1378 69.3598 84.9832 69.3123 84.8642 69.2052C84.7572 69.0982 84.6977 68.9436 84.6977 68.7532C84.6977 68.5629 84.7572 68.4083 84.8642 68.3013C84.9713 68.1942 85.1259 68.1348 85.3281 68.1348C85.5303 68.1348 85.6968 68.1942 85.8039 68.3013C85.9109 68.4083 85.9704 68.5511 85.9704 68.7532C85.9704 68.9554 85.9109 69.0863 85.8039 69.2052C85.6968 69.3123 85.5303 69.3598 85.3281 69.3598Z" fill="black"/>
<path d="M87.9203 72.6313C87.9322 73.0833 88.063 73.4163 88.3009 73.6304C88.5387 73.8326 88.9075 73.9397 89.3832 73.9397C89.8352 73.9397 90.3109 73.8683 90.8224 73.7018V74.4392C90.6202 74.5463 90.3704 74.6295 90.0969 74.689C89.8114 74.7604 89.5259 74.7841 89.2286 74.7841C88.4912 74.7841 87.9203 74.582 87.5278 74.1895C87.1353 73.7851 86.945 73.1904 86.945 72.4054C86.945 71.6204 87.1353 71.0495 87.5159 70.6213C87.8965 70.1931 88.4198 69.979 89.1097 69.979C89.6806 69.979 90.1325 70.1336 90.4418 70.4548C90.751 70.764 90.9175 71.216 90.9175 71.8107C90.9175 72.1199 90.8937 72.3935 90.8343 72.6313H87.9203ZM89.0502 70.7521C88.729 70.7521 88.4674 70.8592 88.2652 71.0732C88.063 71.2873 87.9441 71.5728 87.9203 71.9415H89.9779V71.8701C89.9779 71.5133 89.8947 71.2279 89.74 71.0495C89.5735 70.8592 89.3475 70.7521 89.0383 70.7521H89.0502Z" fill="black"/>
<path d="M91.9413 74.6539V70.1104H92.8214L92.9641 70.7883C93.202 70.5267 93.428 70.3483 93.6302 70.2412C93.8324 70.1342 94.0584 70.0747 94.3081 70.0747C94.4152 70.0747 94.5341 70.0747 94.665 70.0985V71.0619C94.4984 71.0381 94.32 71.0262 94.1535 71.0262C93.7134 71.0262 93.3329 71.1333 92.9998 71.3592V74.6539H91.9413Z" fill="black"/>
<path d="M64.0495 80.7313C63.55 80.541 63.1813 80.315 62.9434 80.0534C62.7174 79.7798 62.6104 79.4587 62.6104 79.0662C62.6104 78.5072 62.8007 78.0671 63.1932 77.7459C63.5857 77.4248 64.109 77.2583 64.7632 77.2583C65.3103 77.2583 65.8693 77.3653 66.4402 77.5794V78.4477C65.8574 78.2693 65.3341 78.186 64.8464 78.186C64.0614 78.186 63.657 78.4477 63.657 78.9829C63.657 79.1851 63.7284 79.3516 63.8711 79.4825C64.0138 79.6133 64.2755 79.7441 64.6323 79.875L65.3935 80.1485C65.8812 80.3388 66.238 80.5529 66.464 80.8146C66.69 81.0762 66.797 81.4093 66.797 81.8137C66.797 82.4084 66.5829 82.8841 66.1548 83.2171C65.7385 83.5621 65.1557 83.7286 64.4301 83.7286C64.109 83.7286 63.7998 83.6929 63.4786 83.6334C63.1694 83.574 62.8839 83.4788 62.6579 83.3718V82.5035C62.9434 82.5987 63.2526 82.67 63.5619 82.7295C63.883 82.789 64.1804 82.8128 64.4301 82.8128C64.8464 82.8128 65.1676 82.7414 65.3935 82.5868C65.6195 82.4321 65.7385 82.2062 65.7385 81.9326C65.7385 81.7304 65.6671 81.5639 65.5244 81.4331C65.3935 81.3022 65.1557 81.1833 64.8107 81.0406L64.0138 80.7313H64.0495Z" fill="black"/>
<path d="M68.6533 81.5518C68.6652 82.0037 68.796 82.3368 69.0339 82.5508C69.2718 82.753 69.6405 82.8601 70.1163 82.8601C70.5682 82.8601 71.044 82.7887 71.5554 82.6222V83.3596C71.3532 83.4667 71.1035 83.5499 70.8299 83.6094C70.5563 83.6689 70.259 83.7046 69.9616 83.7046C69.2242 83.7046 68.6533 83.5024 68.2608 83.1099C67.8683 82.7055 67.678 82.1108 67.678 81.3258C67.678 80.5408 67.8683 79.9699 68.2489 79.5417C68.6295 79.1135 69.1529 78.8994 69.8427 78.8994C70.4136 78.8994 70.8656 79.054 71.1748 79.3752C71.4841 79.6844 71.6506 80.1364 71.6506 80.7311C71.6506 81.0403 71.6268 81.3139 71.5673 81.5518H68.6533ZM69.7832 79.6725C69.4621 79.6725 69.2004 79.7796 68.9982 79.9937C68.796 80.2077 68.6771 80.4932 68.6533 80.8619H70.711V80.7906C70.711 80.4337 70.6277 80.1483 70.4731 79.9699C70.3066 79.7796 70.0806 79.6725 69.7713 79.6725H69.7832Z" fill="black"/>
<path d="M72.6727 83.5743V79.0308H73.5529L73.6956 79.7088C73.9335 79.4471 74.1595 79.2687 74.3617 79.1616C74.5639 79.0546 74.7899 78.9951 75.0515 78.9951C75.1586 78.9951 75.2775 78.9951 75.4083 79.0189V79.9823C75.2418 79.9585 75.0634 79.9466 74.8969 79.9466C74.4568 79.9466 74.0762 80.0537 73.7432 80.2797V83.5743H72.6846H72.6727Z" fill="black"/>
<path d="M77.2998 83.5733L75.5276 79.0298H76.6576L77.8113 82.6217L78.9769 79.0298H80.0473L78.3108 83.5733H77.2879H77.2998Z" fill="black"/>
<path d="M80.7966 83.5726V79.0291H81.8432V83.5726H80.7966ZM81.308 78.2798C81.1177 78.2798 80.9631 78.2322 80.8441 78.1251C80.7371 78.0181 80.6776 77.8635 80.6776 77.6732C80.6776 77.4829 80.7371 77.3283 80.8441 77.2212C80.9512 77.1142 81.1058 77.0547 81.308 77.0547C81.5102 77.0547 81.6767 77.1142 81.7838 77.2212C81.8908 77.3283 81.9503 77.471 81.9503 77.6732C81.9503 77.8754 81.8908 78.0062 81.7838 78.1251C81.6767 78.2322 81.5102 78.2798 81.308 78.2798Z" fill="black"/>
<path d="M86.3637 83.3953C86.0068 83.5856 85.5905 83.6688 85.1148 83.6688C84.413 83.6688 83.8778 83.4666 83.4972 83.0741C83.1285 82.6698 82.9382 82.0988 82.9382 81.3495C82.9382 80.6002 83.1285 79.9936 83.521 79.5773C83.9135 79.1492 84.4606 78.9351 85.1505 78.9351C85.5668 78.9351 85.9712 79.0302 86.3399 79.1967V79.946C85.9355 79.8271 85.6024 79.7676 85.317 79.7676C84.865 79.7676 84.5439 79.8866 84.3298 80.1245C84.1157 80.3623 84.0087 80.7429 84.0087 81.2544V81.3614C84.0087 81.861 84.1157 82.2416 84.3298 82.4794C84.5439 82.7173 84.8769 82.8244 85.317 82.8244C85.6262 82.8244 85.9831 82.7649 86.3637 82.646V83.3834V83.3953Z" fill="black"/>
<path d="M88.0394 81.5518C88.0632 82.0037 88.1822 82.3368 88.42 82.5508C88.6579 82.753 89.0266 82.8601 89.5024 82.8601C89.9544 82.8601 90.4301 82.7887 90.9416 82.6222V83.3596C90.7394 83.4667 90.4896 83.5499 90.216 83.6094C89.9425 83.6689 89.6451 83.7046 89.3478 83.7046C88.5985 83.7046 88.0394 83.5024 87.6469 83.1099C87.2544 82.7055 87.0641 82.1108 87.0641 81.3258C87.0641 80.5408 87.2544 79.9699 87.6351 79.5417C88.0157 79.1135 88.5509 78.8994 89.2288 78.8994C89.8116 78.8994 90.2517 79.054 90.561 79.3752C90.8702 79.6844 91.0367 80.1364 91.0367 80.7311C91.0367 81.0403 91.0129 81.3139 90.9535 81.5518H88.0394ZM89.1694 79.6725C88.8601 79.6725 88.5866 79.7796 88.3844 79.9937C88.1822 80.2077 88.0632 80.4932 88.0394 80.8619H90.109V80.7906C90.109 80.4337 90.0257 80.1483 89.8711 79.9699C89.7046 79.7796 89.4786 79.6725 89.1694 79.6725Z" fill="black"/>
<path d="M94.1058 82.3478C94.1058 82.217 94.0583 82.1099 93.975 82.0267C93.8918 81.9434 93.7371 81.8602 93.5111 81.7769L92.7737 81.5034C92.1077 81.2417 91.7746 80.8254 91.7746 80.2545C91.7746 79.8382 91.9293 79.5171 92.2385 79.2792C92.5596 79.0413 92.964 78.9224 93.4755 78.9224C93.9869 78.9224 94.427 79.0175 94.8076 79.2078V79.9452C94.3556 79.8025 93.9274 79.7193 93.5349 79.7193C93.2614 79.7193 93.0711 79.7549 92.9402 79.8501C92.8094 79.9334 92.7499 80.0523 92.7499 80.2307C92.7499 80.3615 92.7975 80.4686 92.8927 80.5518C92.9759 80.6232 93.1424 80.7183 93.3803 80.8135L94.0821 81.0752C94.4389 81.2179 94.6886 81.3844 94.8433 81.5747C94.9979 81.765 95.0811 82.0029 95.0811 82.2883C95.0811 82.7403 94.9146 83.0971 94.5935 83.3469C94.2724 83.6086 93.8323 83.7394 93.2614 83.7394C92.9878 83.7394 92.7143 83.7037 92.4407 83.6442C92.179 83.5848 91.953 83.5015 91.739 83.3945V82.6571C92.3099 82.8474 92.8094 82.9306 93.2614 82.9306C93.5587 82.9306 93.7728 82.883 93.9036 82.7879C94.0464 82.7046 94.1177 82.5619 94.1177 82.3716L94.1058 82.3478Z" fill="black"/>
</g>
<defs>
<clipPath id="clip0_247_335">
<rect width="107.045" height="107.045" fill="white" transform="translate(0.928589 0.61377)"/>
</clipPath>
</defs>
</svg>
