<svg width="266" height="84" viewBox="0 0 266 84" fill="none" xmlns="http://www.w3.org/2000/svg">
<g clip-path="url(#clip0_436_73)">
<path d="M17.1116 50.0148C14.0819 50.0148 11.0895 49.5335 8.15277 48.5617C5.48558 47.6825 3.19012 46.4423 1.26639 44.8411C0.931833 44.5635 0.838899 44.0822 1.06194 43.7028L4.08228 38.5384C4.34249 38.0941 4.91868 37.9645 5.34618 38.2515C7.24202 39.4824 9.0914 40.4542 10.9036 41.1668C12.9574 41.9813 14.9369 42.3793 16.8421 42.3793C18.2454 42.3793 19.3327 42.1294 20.104 41.6389C20.8754 41.1483 21.2564 40.4264 21.2564 39.4731C21.2564 38.5199 20.7731 37.7702 19.7973 37.2056C18.8215 36.6411 17.1209 36.0487 14.6767 35.4101C12.279 34.7345 10.2531 34.0774 8.60814 33.448C6.95393 32.8187 5.60639 32.1153 4.56553 31.3563C3.52468 30.5882 2.78121 29.7089 2.32584 28.7186C1.87046 27.7283 1.64742 26.5529 1.64742 25.2017C1.64742 23.3969 2.00986 21.7587 2.73474 20.2686C3.45963 18.7786 4.45401 17.5199 5.71791 16.4833C6.98181 15.4467 8.48733 14.6322 10.2345 14.0492C11.9723 13.4661 13.8682 13.1699 15.9034 13.1699C18.5706 13.1699 21.0705 13.5309 23.4032 14.2528C25.522 14.9099 27.5666 16.0483 29.5554 17.6679C29.8992 17.9548 29.9736 18.4546 29.7319 18.8341L26.4421 23.9059C26.1726 24.3224 25.615 24.4335 25.2061 24.1651C23.4682 23.0267 21.9069 22.1752 20.5222 21.6199C18.9424 20.9905 17.3997 20.6759 15.9034 20.6759C14.7232 20.6759 13.7288 20.9165 12.9203 21.3885C12.1024 21.8605 11.7028 22.6195 11.7028 23.656C11.7028 24.6926 12.1396 25.3868 13.0225 25.8865C13.9054 26.3863 15.541 26.9231 17.9387 27.5062C20.4758 28.1818 22.6132 28.8574 24.3511 29.5331C26.0889 30.2087 27.5108 30.9676 28.5889 31.8006C29.6762 32.6336 30.4661 33.5961 30.968 34.6697C31.4605 35.7526 31.7114 37.039 31.7114 38.5199C31.7114 42.0368 30.4011 44.8319 27.7803 46.8958C25.1596 48.969 21.6003 50.0055 17.1301 50.0055" fill="black"/>
<path d="M53.6251 50.0148C50.642 50.0148 47.9562 49.5336 45.5864 48.5618C43.2073 47.59 41.1999 46.2757 39.5457 44.6098C37.8915 42.9439 36.6369 41.0188 35.7819 38.8346C34.9269 36.6504 34.4901 34.3643 34.4901 31.9765C34.4901 29.4128 34.9176 26.9879 35.7819 24.7112C36.6369 22.4344 37.8822 20.4445 39.5178 18.7323C41.1442 17.0201 43.1515 15.6689 45.5213 14.6786C47.9004 13.6883 50.5955 13.1885 53.6344 13.1885C56.6734 13.1885 59.3591 13.6883 61.7104 14.6786C64.0616 15.6689 66.0503 17.0109 67.686 18.7046C69.3123 20.389 70.5483 22.3418 71.3847 24.5538C72.2211 26.7658 72.6393 29.0796 72.6393 31.5137C72.6393 32.1431 72.6115 32.7632 72.5743 33.374L72.5185 34.1422C72.4813 34.605 72.091 34.9659 71.6264 34.9659H47.0547C46.4878 34.9659 46.0789 35.4749 46.1719 36.0303C46.5064 37.8998 47.3335 39.3621 48.6532 40.408C50.2145 41.6481 51.9895 42.2682 53.9783 42.2682C55.5581 42.2682 57.0916 41.8888 58.5599 41.1206C59.7773 40.4913 60.6602 39.6675 61.2085 38.6587C61.413 38.2885 61.8312 38.1034 62.2401 38.2145L69.6562 40.2784C70.2231 40.4357 70.4926 41.0836 70.1952 41.5834C68.8012 43.9249 66.8124 45.8593 64.2288 47.4049C61.2829 49.1634 57.7607 50.0426 53.6437 50.0426M60.1398 28.2837C60.6974 28.2837 61.1249 27.7839 61.0226 27.2378C60.6695 25.4701 59.9074 24.0448 58.7365 22.9434C57.3332 21.6385 55.5953 20.9813 53.5136 20.9813C51.4319 20.9813 49.6383 21.6477 48.2536 22.9712C47.1012 24.0818 46.3484 25.5071 46.0046 27.2286C45.8931 27.7654 46.3298 28.2744 46.8874 28.2744H60.1584L60.1398 28.2837Z" fill="black"/>
<path d="M77.9923 0H87.0626C87.5551 0 87.9547 0.397973 87.9547 0.888497V36.6968C87.9547 39.3993 89.1071 40.7505 91.4119 40.7505C91.9509 40.7505 92.555 40.6765 93.2055 40.5192L94.1255 40.297C94.6274 40.1767 95.1292 40.5007 95.2129 41.0097L96.3095 47.2292C96.3838 47.6457 96.1515 48.0529 95.7612 48.2102C94.5623 48.7007 93.2241 49.0987 91.7464 49.4041C89.9807 49.7651 88.3265 49.9409 86.7931 49.9409C83.6705 49.9409 81.2728 49.1265 79.6 47.5068C77.9272 45.8872 77.0908 43.5456 77.0908 40.4822V0.888497C77.0908 0.397973 77.4904 0 77.983 0" fill="black"/>
<path d="M116.662 50.0148C113.679 50.0148 110.993 49.5336 108.623 48.5618C106.244 47.59 104.237 46.2757 102.583 44.6098C100.928 42.9439 99.6737 41.0188 98.8187 38.8346C97.9544 36.6504 97.5269 34.3643 97.5269 31.9765C97.5269 29.4128 97.9544 26.9879 98.8187 24.7112C99.6737 22.4344 100.919 20.4445 102.545 18.7323C104.172 17.0201 106.179 15.6689 108.549 14.6786C110.928 13.6883 113.623 13.1885 116.662 13.1885C119.701 13.1885 122.387 13.6883 124.738 14.6786C127.089 15.6689 129.078 17.0109 130.713 18.7046C132.34 20.389 133.576 22.3418 134.412 24.5538C135.249 26.7658 135.667 29.0796 135.667 31.5137C135.667 32.1431 135.648 32.7632 135.602 33.374L135.546 34.1422C135.509 34.605 135.119 34.9659 134.654 34.9659H110.082C109.515 34.9659 109.106 35.4749 109.199 36.0303C109.534 37.8998 110.361 39.3621 111.681 40.408C113.242 41.6481 115.017 42.2682 117.006 42.2682C118.586 42.2682 120.119 41.8888 121.587 41.1206C122.805 40.4913 123.688 39.6675 124.236 38.6587C124.44 38.2885 124.859 38.1034 125.268 38.2145L132.684 40.2784C133.251 40.4357 133.52 41.0836 133.213 41.5834C131.819 43.9249 129.831 45.8593 127.247 47.4049C124.301 49.1634 120.779 50.0426 116.662 50.0426M123.158 28.2837C123.716 28.2837 124.143 27.7839 124.041 27.2378C123.697 25.4701 122.935 24.0448 121.755 22.9434C120.351 21.6385 118.614 20.9813 116.532 20.9813C114.45 20.9813 112.647 21.6477 111.272 22.9712C110.119 24.0818 109.367 25.5071 109.023 27.2286C108.911 27.7654 109.348 28.2744 109.906 28.2744H123.177L123.158 28.2837Z" fill="black"/>
<path d="M138.176 31.56C138.176 29.1258 138.604 26.7935 139.468 24.563C140.323 22.3326 141.568 20.3705 143.204 18.686C144.83 16.9923 146.837 15.6596 149.207 14.66C151.586 13.6697 154.281 13.1699 157.32 13.1699C161.437 13.1699 164.894 14.0399 167.701 15.7706C170.173 17.2977 172.097 19.2321 173.472 21.5829C173.76 22.0734 173.509 22.712 172.952 22.8786L164.049 25.5534C163.686 25.6644 163.296 25.5348 163.082 25.2294C161.698 23.3136 159.755 22.3603 157.255 22.3603C154.988 22.3603 153.101 23.1933 151.586 24.8592C150.072 26.5251 149.31 28.7556 149.31 31.5507C149.31 32.9482 149.514 34.2162 149.923 35.3731C150.332 36.5207 150.899 37.5018 151.624 38.3162C152.348 39.1307 153.194 39.76 154.17 40.2043C155.146 40.6578 156.168 40.8799 157.255 40.8799C158.612 40.8799 159.857 40.556 160.982 39.8989C161.902 39.3713 162.627 38.7142 163.157 37.9275C163.38 37.6036 163.779 37.4555 164.151 37.5758L173.045 40.2969C173.584 40.4634 173.844 41.0928 173.565 41.5833C172.246 43.8971 170.322 45.8222 167.794 47.3771C164.922 49.1355 161.428 50.0148 157.311 50.0148C154.328 50.0148 151.642 49.5058 149.272 48.4969C146.893 47.4789 144.886 46.1276 143.232 44.4432C141.577 42.7587 140.323 40.7966 139.468 38.5661C138.604 36.3356 138.176 34.0033 138.176 31.5692" fill="black"/>
<path d="M201.51 46.7014C201.613 47.1364 201.38 47.5807 200.962 47.738C199.652 48.2563 198.183 48.7468 196.566 49.2003C194.642 49.7371 192.709 50.0148 190.767 50.0148C189.41 50.0148 188.128 49.8482 186.929 49.5058C185.73 49.1633 184.68 48.6265 183.769 47.8861C182.868 47.1457 182.152 46.1646 181.632 44.943C181.111 43.7305 180.851 42.259 180.851 40.5468V22.9156C180.851 22.4251 180.452 22.0271 179.959 22.0271H177.199C176.706 22.0271 176.307 21.6292 176.307 21.1386V14.7433C176.307 14.2528 176.706 13.8548 177.199 13.8548H179.959C180.452 13.8548 180.851 13.4568 180.851 12.9663V3.46125C180.851 2.97073 181.251 2.57275 181.743 2.57275H190.814C191.306 2.57275 191.706 2.97073 191.706 3.46125V12.9663C191.706 13.4568 192.105 13.8548 192.598 13.8548H198.072C198.564 13.8548 198.964 14.2528 198.964 14.7433V21.1386C198.964 21.6292 198.564 22.0271 198.072 22.0271H192.598C192.105 22.0271 191.706 22.4251 191.706 22.9156V36.8262C191.706 38.0016 192.003 38.8438 192.589 39.3621C193.174 39.8804 193.927 40.1395 194.828 40.1395C195.646 40.1395 196.483 40.0007 197.338 39.7323C197.802 39.5842 198.239 39.4361 198.639 39.2695C199.14 39.0659 199.698 39.3621 199.828 39.8896L201.501 46.6922L201.51 46.7014Z" fill="black"/>
<path d="M75.3809 78.8818C74.0984 78.8818 72.881 78.669 71.7007 78.2432C70.5298 77.8175 69.5075 77.1789 68.6339 76.3367L69.4331 75.2538C70.3253 76.059 71.2546 76.6513 72.2119 77.04C73.1691 77.4195 74.2285 77.6139 75.3809 77.6139C76.8307 77.6139 77.9923 77.3084 78.8845 76.7069C79.7674 76.1053 80.2134 75.2538 80.2134 74.1802C80.2134 73.6712 80.1019 73.2362 79.8789 72.8937C79.6558 72.542 79.3213 72.2459 78.8752 72.0052C78.4291 71.7646 77.8715 71.5425 77.2117 71.3574C76.5519 71.163 75.7805 70.9686 74.9069 70.7558C73.9683 70.5429 73.1505 70.33 72.4628 70.1172C71.7658 69.9043 71.1989 69.6544 70.7528 69.3582C70.3067 69.0621 69.9722 68.7011 69.7491 68.2754C69.5261 67.8496 69.4146 67.3128 69.4146 66.6557C69.4146 65.832 69.5725 65.1101 69.8978 64.49C70.2138 63.8699 70.6599 63.3609 71.2268 62.9629C71.7937 62.5649 72.4442 62.2595 73.1784 62.0559C73.9125 61.8523 74.6932 61.7505 75.5296 61.7505C76.8307 61.7505 77.983 61.9726 78.9867 62.3983C79.9904 62.8333 80.771 63.3887 81.3193 64.0735L80.4272 64.9343C79.8696 64.2957 79.154 63.8236 78.2711 63.4997C77.3883 63.185 76.4403 63.0184 75.4459 63.0184C74.8233 63.0184 74.2471 63.0832 73.7081 63.2128C73.1691 63.3424 72.6858 63.546 72.2862 63.8144C71.8773 64.092 71.5613 64.4437 71.329 64.8787C71.0967 65.3137 70.9758 65.832 70.9758 66.4243C70.9758 66.9149 71.0595 67.3036 71.2175 67.5998C71.3755 67.8959 71.6357 68.1551 71.9795 68.3587C72.3327 68.5716 72.788 68.7567 73.3364 68.914C73.894 69.0713 74.5538 69.2472 75.3158 69.4415C76.3567 69.7007 77.286 69.9413 78.0945 70.1727C78.9031 70.4041 79.5815 70.691 80.1205 71.0334C80.6595 71.3759 81.0777 71.7738 81.3658 72.2459C81.6539 72.7179 81.8026 73.3102 81.8026 74.0321C81.8026 75.5129 81.2264 76.6976 80.0554 77.5768C78.8938 78.4561 77.3418 78.9003 75.4088 78.9003" fill="black"/>
<path d="M92.4435 78.8725C91.2725 78.8725 90.1945 78.6411 89.2001 78.1876C88.2057 77.7341 87.3507 77.114 86.6258 76.3273C85.901 75.5406 85.3341 74.6336 84.9344 73.5878C84.5255 72.5512 84.3304 71.4591 84.3304 70.3114C84.3304 69.1638 84.5348 68.0439 84.953 66.9981C85.3712 65.9615 85.9381 65.0452 86.663 64.2586C87.3879 63.4719 88.2429 62.8518 89.2373 62.3983C90.2317 61.9448 91.3004 61.7134 92.4528 61.7134C93.6051 61.7134 94.6646 61.9448 95.6497 62.3983C96.6255 62.8518 97.4898 63.4719 98.2239 64.2586C98.9581 65.0452 99.5343 65.9615 99.9525 66.9981C100.371 68.0347 100.575 69.1453 100.575 70.3114C100.575 71.4776 100.371 72.5512 99.9525 73.5878C99.5343 74.6244 98.9674 75.5406 98.2425 76.3273C97.5176 77.114 96.6627 77.7341 95.6683 78.1876C94.6739 78.6411 93.6051 78.8725 92.4528 78.8725M85.9288 70.3762C85.9288 71.3573 86.0961 72.2735 86.44 73.1343C86.7838 73.995 87.2392 74.7447 87.834 75.3833C88.4195 76.0219 89.1072 76.5217 89.8971 76.8919C90.687 77.2621 91.5234 77.4472 92.4249 77.4472C93.3263 77.4472 94.1628 77.2621 94.9527 76.8919C95.7426 76.5217 96.4303 76.0034 97.0344 75.3463C97.6292 74.6891 98.1031 73.9302 98.4377 73.0695C98.7815 72.2087 98.9488 71.2832 98.9488 70.2837C98.9488 69.2841 98.7815 68.3864 98.4377 67.5349C98.0938 66.6742 97.6292 65.9245 97.0344 65.2766C96.4396 64.6288 95.7519 64.1105 94.9713 63.731C94.1906 63.3515 93.3542 63.1572 92.4621 63.1572C91.5699 63.1572 90.7242 63.3515 89.9343 63.731C89.1443 64.1105 88.4566 64.638 87.8711 65.2951C87.2857 65.9523 86.821 66.7204 86.4679 67.5997C86.1147 68.4789 85.9381 69.4044 85.9381 70.3855" fill="black"/>
<path d="M104.534 55.3183H106.16V75.2818C106.16 75.9019 106.337 76.3831 106.69 76.7441C107.043 77.105 107.527 77.2809 108.14 77.2809C108.372 77.2809 108.66 77.2531 108.986 77.1976C109.32 77.1421 109.618 77.068 109.896 76.9569L110.212 78.2342C109.85 78.3822 109.404 78.5026 108.874 78.6044C108.344 78.6969 107.88 78.7432 107.499 78.7432C106.607 78.7432 105.882 78.4748 105.343 77.9287C104.804 77.3919 104.525 76.6608 104.525 75.7445V55.3091L104.534 55.3183Z" fill="black"/>
<path d="M117.824 78.882C114.283 78.882 112.517 76.4386 112.517 71.5611V62.0098H114.116V71.339C114.116 75.4113 115.51 77.4474 118.307 77.4474C119.013 77.4474 119.692 77.3271 120.351 77.0865C121.011 76.8458 121.634 76.5034 122.201 76.0684C122.777 75.6334 123.279 75.1058 123.716 74.495C124.152 73.8842 124.496 73.1993 124.756 72.4589V62.019H126.355V76.346C126.355 76.8736 126.578 77.142 127.024 77.142V78.5765C126.922 78.595 126.82 78.6043 126.736 78.6043H126.541C126.113 78.6043 125.732 78.4747 125.407 78.2063C125.072 77.9379 124.914 77.5862 124.914 77.142V74.6616C124.19 75.9943 123.195 77.0402 121.922 77.7806C120.658 78.521 119.283 78.8912 117.814 78.8912" fill="black"/>
<path d="M136.048 82.5376C136.345 82.6857 136.745 82.8245 137.247 82.9541C137.749 83.0836 138.278 83.1484 138.827 83.1484C140.063 83.1484 140.685 82.7597 140.685 81.973C140.685 81.5473 140.537 81.2511 140.258 81.0845C139.97 80.9179 139.589 80.8346 139.124 80.8346C138.659 80.8346 138.204 80.8902 137.721 80.992C137.228 81.0938 136.838 81.1956 136.54 81.2789L137.879 78.8633C136.791 78.78 135.788 78.4931 134.858 78.0211C133.929 77.549 133.13 76.9104 132.461 76.1237C131.792 75.337 131.262 74.4393 130.881 73.4305C130.5 72.4217 130.305 71.3573 130.305 70.2282C130.305 69.0991 130.509 67.9607 130.909 66.9148C131.318 65.8783 131.875 64.9712 132.6 64.2123C133.325 63.4441 134.189 62.8426 135.193 62.3983C136.197 61.9541 137.293 61.7319 138.483 61.7319C139.998 61.7319 141.326 62.0744 142.479 62.75C143.631 63.4256 144.496 64.3697 145.072 65.5821L143.51 66.0911C143.018 65.1749 142.321 64.4622 141.419 63.9439C140.518 63.4256 139.514 63.1665 138.427 63.1665C137.507 63.1665 136.661 63.3423 135.871 63.7033C135.081 64.0642 134.394 64.564 133.808 65.2026C133.223 65.8412 132.758 66.5909 132.414 67.4516C132.07 68.3124 131.903 69.2379 131.903 70.2374C131.903 71.237 132.08 72.1718 132.433 73.051C132.786 73.9303 133.251 74.6984 133.836 75.3463C134.422 75.9942 135.119 76.5125 135.918 76.8919C136.717 77.2714 137.563 77.4657 138.464 77.4657C139.04 77.4657 139.607 77.3824 140.174 77.2066C140.741 77.04 141.261 76.8179 141.735 76.5402C142.219 76.2626 142.628 75.9386 142.981 75.5684C143.334 75.1982 143.575 74.8095 143.696 74.4023L145.267 74.8465C145.053 75.4018 144.746 75.9109 144.338 76.3921C143.929 76.8734 143.455 77.2806 142.897 77.6323C142.339 77.984 141.726 78.2709 141.048 78.4931C140.369 78.7152 139.663 78.8355 138.938 78.8633L138.102 80.2608C138.297 80.1775 138.511 80.122 138.762 80.1035C139.003 80.085 139.217 80.0664 139.384 80.0664C140.109 80.0664 140.676 80.2238 141.076 80.5477C141.475 80.8624 141.68 81.3344 141.68 81.9452C141.68 82.6209 141.429 83.1392 140.918 83.4909C140.406 83.8426 139.672 84.0184 138.715 84.0184C138.102 84.0184 137.526 83.9629 137.005 83.8426C136.485 83.7222 136.02 83.5834 135.611 83.4168L136.057 82.5561L136.048 82.5376Z" fill="black"/>
<path d="M155.675 78.8728C154.505 78.8728 153.417 78.6414 152.432 78.1879C151.438 77.7344 150.583 77.1143 149.858 76.3276C149.133 75.5409 148.566 74.6339 148.166 73.5881C147.758 72.5515 147.562 71.4501 147.562 70.3117C147.562 69.1734 147.767 68.0442 148.185 66.9984C148.603 65.9618 149.17 65.0456 149.895 64.2589C150.62 63.4722 151.475 62.8521 152.469 62.3986C153.464 61.9451 154.532 61.7137 155.685 61.7137C156.837 61.7137 157.897 61.9451 158.882 62.3986C159.867 62.8521 160.722 63.4722 161.456 64.2589C162.19 65.0456 162.766 65.9526 163.185 66.9984C163.603 68.035 163.807 69.1456 163.807 70.3117C163.807 71.4779 163.603 72.5515 163.185 73.5881C162.766 74.6247 162.199 75.5409 161.475 76.3276C160.75 77.1143 159.895 77.7344 158.9 78.1879C157.906 78.6414 156.837 78.8728 155.685 78.8728M149.161 70.3765C149.161 71.3576 149.328 72.2738 149.672 73.1346C150.016 73.9953 150.48 74.745 151.066 75.3743C151.651 76.0129 152.339 76.5127 153.129 76.8829C153.919 77.2531 154.755 77.4382 155.657 77.4382C156.558 77.4382 157.395 77.2531 158.185 76.8829C158.975 76.5127 159.662 75.9944 160.266 75.3373C160.861 74.6802 161.335 73.9213 161.67 73.0605C162.014 72.1998 162.181 71.2743 162.181 70.2747C162.181 69.2752 162.014 68.3774 161.67 67.5259C161.326 66.6652 160.861 65.9155 160.266 65.2677C159.672 64.6198 158.984 64.1015 158.203 63.7221C157.423 63.3426 156.586 63.1482 155.694 63.1482C154.802 63.1482 153.956 63.3426 153.166 63.7221C152.376 64.1015 151.689 64.6291 151.103 65.2862C150.518 65.9433 150.053 66.7115 149.7 67.5907C149.347 68.47 149.17 69.4047 149.17 70.3765M157.646 57.9653C157.172 57.9653 156.763 57.9006 156.4 57.771C156.038 57.6414 155.703 57.5026 155.406 57.336C155.109 57.1787 154.811 57.0306 154.523 56.8917C154.235 56.7529 153.928 56.6881 153.612 56.6881C153.25 56.6881 152.962 56.7622 152.748 56.9103C152.534 57.0583 152.376 57.2249 152.265 57.4008C152.153 57.5766 152.079 57.7525 152.042 57.9098C151.995 58.0671 151.977 58.169 151.977 58.2152H150.889C150.889 58.1319 150.927 57.9468 150.982 57.6599C151.047 57.373 151.177 57.0768 151.382 56.7714C151.586 56.466 151.865 56.1883 152.209 55.9477C152.562 55.7071 153.027 55.5775 153.603 55.5775C154.031 55.5775 154.412 55.6515 154.737 55.7811C155.071 55.9199 155.378 56.068 155.675 56.2254C155.973 56.3827 156.28 56.5308 156.586 56.6511C156.893 56.7807 157.255 56.8455 157.655 56.8455C158.082 56.8455 158.417 56.7714 158.659 56.6233C158.9 56.4753 159.086 56.3087 159.198 56.1328C159.309 55.957 159.393 55.7811 159.421 55.6238C159.449 55.4664 159.467 55.3646 159.467 55.3184H160.554C160.554 55.4202 160.517 55.6238 160.443 55.9107C160.369 56.1976 160.229 56.4845 160.025 56.7899C159.82 57.0861 159.532 57.3545 159.142 57.6044C158.761 57.845 158.25 57.9653 157.608 57.9653" fill="black"/>
<path d="M174.69 78.8818C173.519 78.8818 172.431 78.6504 171.428 78.1969C170.424 77.7434 169.56 77.114 168.826 76.3181C168.091 75.5221 167.515 74.6059 167.097 73.56C166.679 72.5235 166.474 71.4036 166.474 70.2189C166.474 69.0342 166.679 67.9514 167.097 66.9241C167.515 65.8967 168.082 64.9897 168.807 64.2216C169.532 63.4534 170.387 62.8333 171.381 62.389C172.376 61.9448 173.444 61.7227 174.597 61.7227C175.749 61.7227 176.855 61.954 177.859 62.4075C178.862 62.861 179.727 63.4811 180.452 64.2586C181.176 65.036 181.743 65.9338 182.143 66.9611C182.552 67.9884 182.747 69.0805 182.747 70.2189V70.6169C182.747 70.7742 182.738 70.876 182.719 70.9223H168.147C168.212 71.8756 168.435 72.7641 168.816 73.5785C169.197 74.393 169.681 75.1056 170.266 75.698C170.852 76.2903 171.53 76.7623 172.292 77.0955C173.054 77.438 173.881 77.6045 174.755 77.6045C175.331 77.6045 175.898 77.5212 176.446 77.3639C177.004 77.2066 177.515 76.9844 177.998 76.716C178.481 76.4384 178.9 76.1052 179.281 75.7165C179.652 75.3278 179.95 74.8928 180.163 74.43L181.567 74.8095C181.334 75.4018 180.991 75.9479 180.526 76.4476C180.071 76.9474 179.532 77.3732 178.927 77.7341C178.323 78.0951 177.654 78.3727 176.929 78.5763C176.204 78.7799 175.461 78.8818 174.69 78.8818ZM181.214 69.6451C181.149 68.6733 180.935 67.7755 180.554 66.9703C180.182 66.1651 179.699 65.471 179.113 64.8879C178.528 64.3048 177.849 63.8513 177.087 63.5182C176.325 63.1942 175.498 63.0276 174.625 63.0276C173.751 63.0276 172.933 63.1942 172.162 63.5182C171.391 63.8513 170.721 64.3048 170.127 64.8879C169.541 65.471 169.076 66.1744 168.723 66.9888C168.37 67.8033 168.166 68.6918 168.101 69.6451H181.204H181.214Z" fill="black"/>
<path d="M191.539 78.8818C190.256 78.8818 189.039 78.669 187.858 78.2432C186.687 77.8175 185.665 77.1789 184.792 76.3367L185.591 75.2538C186.483 76.059 187.412 76.6513 188.369 77.04C189.327 77.4195 190.386 77.6139 191.539 77.6139C192.988 77.6139 194.15 77.3084 195.042 76.7069C195.925 76.1053 196.371 75.2538 196.371 74.1802C196.371 73.6712 196.26 73.2362 196.036 72.8937C195.813 72.542 195.479 72.2459 195.033 72.0052C194.587 71.7646 194.029 71.5425 193.369 71.3574C192.709 71.163 191.938 70.9686 191.065 70.7558C190.126 70.5429 189.308 70.33 188.62 70.1172C187.923 69.9043 187.356 69.6544 186.91 69.3582C186.464 69.0621 186.13 68.7011 185.907 68.2754C185.684 67.8496 185.572 67.3128 185.572 66.6557C185.572 65.832 185.73 65.1101 186.055 64.49C186.371 63.8699 186.817 63.3609 187.384 62.9629C187.951 62.5649 188.602 62.2595 189.336 62.0559C190.07 61.8523 190.851 61.7505 191.687 61.7505C192.988 61.7505 194.141 61.9726 195.135 62.3983C196.139 62.8333 196.919 63.3887 197.468 64.0735L196.576 64.9343C196.018 64.2957 195.302 63.8236 194.419 63.4997C193.537 63.185 192.589 63.0184 191.594 63.0184C190.972 63.0184 190.395 63.0832 189.856 63.2128C189.317 63.3424 188.834 63.546 188.435 63.8144C188.026 64.092 187.71 64.4437 187.477 64.8787C187.245 65.3137 187.124 65.832 187.124 66.4243C187.124 66.9149 187.208 67.3036 187.366 67.5998C187.524 67.8959 187.784 68.1551 188.128 68.3587C188.481 68.5716 188.936 68.7567 189.485 68.914C190.042 69.0713 190.702 69.2472 191.464 69.4415C192.505 69.7007 193.434 69.9413 194.243 70.1727C195.051 70.4041 195.73 70.691 196.269 71.0334C196.808 71.3759 197.226 71.7738 197.514 72.2459C197.802 72.7179 197.951 73.3102 197.951 74.0321C197.951 75.5129 197.375 76.6976 196.204 77.5768C195.042 78.4561 193.49 78.9003 191.557 78.9003" fill="black"/>
<path d="M260.848 41.6759C259.027 44.4525 257.224 47.0254 254.445 48.7284C246.341 53.6891 235.58 53.8094 227.755 48.136C226.277 46.3405 218.489 23.4895 229.567 28.1171C239.873 32.4207 246.239 30.4957 249.371 26.3031C258.135 26.0254 264.872 33.8738 260.858 41.6852" fill="#565656"/>
<path d="M252.001 6.0622C248.665 16.3169 235.598 16.1226 226.147 19.3897C225.032 16.1318 225.022 12.9666 225.459 9.93086C227.309 8.26493 230.059 6.53421 231.388 5.85858C237.615 3.04501 245.115 2.80437 252.001 6.0622Z" fill="#565656"/>
<path d="M227.309 47.9509C238.293 56.1418 252.196 46.1184 245.895 35.1973C241.76 29.237 233.21 29.274 228.889 23.582C224.799 18.3806 225.45 9.4679 231.388 5.84912C228.526 7.09857 226.119 8.7645 224.149 10.7729C220.413 14.6045 218.201 19.1488 217.365 23.7949C215.729 32.9575 219.558 42.4719 227.299 47.9417" fill="black"/>
<path d="M265.941 27.8953C265.904 21.7406 263.441 15.6044 259.176 11.1527C250.812 2.6194 241.332 3.46162 237.476 6.89529C232.801 10.1716 231.537 17.511 235.682 21.6851C239.585 25.5075 244.622 26.9328 249.947 27.6454C262.447 29.3021 262.41 41.741 254.445 48.7194C261.527 44.351 265.997 36.2805 265.941 27.8953Z" fill="black"/>
</g>
<defs>
<clipPath id="clip0_436_73">
<rect width="265" height="84" fill="white" transform="translate(0.941101)"/>
</clipPath>
</defs>
</svg>
